# xmcd CD database file
#
# Track frame offsets:
#	182
#	20430
#	32897
#	47097
#	58730
#	70255
#	85882
#	100550
#	124015
#	138662
#	153112
#
# Disc length: 2205 seconds
#
# Revision: 0
# Processed by: cddbd v1.5PL3 Copyright (c) Steve Scherf et al.
# Submitted via: CDex 1.51
#
DISCID=8d089b0b
DTITLE=Hal McKUSICK - In a 20 Centur Drawing Room
DYEAR=1996
DGENRE=Jazz
TTITLE0=My Inspiration
TTITLE1=Gift Of The Magi
TTITLE2=You're A Lucky Guy
TTITLE3=Can't We Be Friends
TTITLE4=Step Lively Osie
TTITLE5=Minor Seventh Heaven
TTITLE6=Theme
TTITLE7=Alto Stratus
TTITLE8=How Long Has This Been Going On
TTITLE9=Brother Jack
TTITLE10=Immortal
EXTD=YEAR: 1996
EXTT0=
EXTT1=
EXTT2=
EXTT3=
EXTT4=
EXTT5=
EXTT6=
EXTT7=
EXTT8=
EXTT9=
EXTT10=
PLAYORDER=
